<?xml version="1.0" encoding="utf-8"?>
<!-- Generator: Adobe Illustrator 18.0.0, SVG Export Plug-In . SVG Version: 6.00 Build 0)  -->
<!DOCTYPE svg PUBLIC "-//W3C//DTD SVG 1.1//EN" "http://www.w3.org/Graphics/SVG/1.1/DTD/svg11.dtd">
<svg version="1.1" id="Layer_1" xmlns="http://www.w3.org/2000/svg" xmlns:xlink="http://www.w3.org/1999/xlink" x="0px" y="0px"
	 viewBox="50.5 51 412 412" enable-background="new 50.5 51 412 412" xml:space="preserve">
<path id="google-plus-square-icon" fill="#FFFFFF" d="M264.9,342.8c0,25.3-20.6,45.1-63.1,45.1c-33.3,0-57.3-21.1-57.3-46.4
	c0-24.8,28.2-46.2,61.5-45.8C242.9,295.7,264.9,318.7,264.9,342.8z M462.5,51v412h-412V51H462.5z M293.6,339.9
	c0-23.4-8.7-38.6-35.1-58.4c-26.8-19.5-33.3-30.6-7.8-50.3c14.4-11.1,24.5-26,24.5-44.3c0-20-8.2-38.1-23.5-46.9h21.8l18.5-19.4
	c0,0-69.8,0-82.9,0c-51.7,0-77.1,31-77.1,65.1c0,34.9,23.9,62.3,70.6,62.3c-7.2,14.6-4.3,28.1,7.5,37.8c-79.8,0-96.8,35-96.8,62
	c0,34.9,40.2,55.7,88.3,55.7C267.4,403.4,293.6,368.5,293.6,339.9z M401.7,162.6h-38.2v-38.2h-19.1v38.2h-38.2v19.1h38.2V220h19.1
	v-38.2h38.2L401.7,162.6L401.7,162.6z M241.9,188.1c-3.9-29.3-23-53.4-45.3-54.1c-22.3-0.7-37.3,21.8-33.5,51.1
	c3.9,29.3,25.1,49.8,47.4,50.5C232.9,236.3,245.7,217.5,241.9,188.1z"/>
</svg>
