<?xml version="1.0" encoding="utf-8"?>
<!-- Generator: Adobe Illustrator 18.0.0, SVG Export Plug-In . SVG Version: 6.00 Build 0)  -->
<!DOCTYPE svg PUBLIC "-//W3C//DTD SVG 1.1//EN" "http://www.w3.org/Graphics/SVG/1.1/DTD/svg11.dtd">
<svg version="1.1" id="Layer_1" xmlns="http://www.w3.org/2000/svg" xmlns:xlink="http://www.w3.org/1999/xlink" x="0px" y="0px"
	 viewBox="50 50 412 412" enable-background="new 50 50 412 412" xml:space="preserve">
<path id="youtube-2-icon" fill="#FFFFFF" d="M290,294.8c-5.2,0-9.6,3.3-12.9,7.3V268h-14.7v106h14.7v-6c4.1,5.1,8.5,7,13.8,7
	c9.7,0,13.3-7.5,13.3-17.2v-43.4C304.2,303.8,300.7,294.8,290,294.8z M289.2,355.7c0,2.5-0.4,4.3-1.3,5.4c-1.6,2.1-5.1,2-7.4,0.8
	c-1.1-0.6-2.3-1.5-3.4-2.7v-48.7c1-1.1,2-1.9,3-2.4c2.5-1.3,5.8-1,7.6,1.3c1,1.4,1.6,3.4,1.6,6V355.7L289.2,355.7z M233.7,295.8
	h14.5V374h-14.5v-8.6c-2.7,3.2-5.5,5.6-8.4,7.3c-7.8,4.5-18.6,4.4-18.6-11.5v-65.4h14.5v59.9c0,3.1,0.8,5.3,3.9,5.3
	c2.8,0,6.8-3.6,8.5-5.9V295.8L233.7,295.8z M207,283.4H190V374h-16.4v-90.6h-16.9V268H207L207,283.4L207,283.4z M240.3,201.9v-38.2
	c0-4.5,2.1-7.8,6.4-7.8c4.7,0,6.7,3.2,6.7,7.8v38.2c0,4.5-2.3,7.8-6.4,7.8C242.7,209.7,240.3,206.2,240.3,201.9z M50,50v412h412V50
	H50z M281.8,141h15.3v62.9c0,3.3,0.8,5.5,4.1,5.5c3,0,7.1-3.8,9-6.1V141h15.3v82.1h-15.3V214c-6.6,7.8-13,10.2-17.6,10.2
	c-8.2,0-10.7-6.6-10.7-14.7V141L281.8,141z M246.9,140.3c12.4,0,21.9,9.2,21.9,22.1v40.2c0,13.8-9.7,22-21.9,22
	c-14.8,0-22.4-7.5-22.4-22v-40.2C224.6,149.2,233.5,140.3,246.9,140.3z M185,111.8l11.9,44.5l11-44.5h17.5l-20,66.2v45.1h-17.2V178
	l-20.5-66.2H185z M381,365.2c0,19.3-15.7,35-35,35H166c-19.3,0-35-15.7-35-35v-88.4c0-19.3,15.7-35,35-35H346c19.3,0,35,15.7,35,35
	V365.2z M337.3,293.8c-13.1,0-22.1,9.4-22.1,23v35.1c0,14.1,7.1,24.2,21,24.2c15.3,0,21.8-9.1,21.8-24.2v-5.9h-15v5.4
	c0,6.8-0.4,10.9-6.5,10.9c-5.9,0-6.3-5.1-6.3-10.9v-14.8h27.8v-19.9C357.9,302.7,351.2,293.8,337.3,293.8z M343,324.6h-12.8v-7.9
	c0-5.4,1.1-9.2,6.5-9.2c5.2,0,6.3,3.9,6.3,9.2V324.6z"/>
</svg>
