<?xml version="1.0" encoding="utf-8"?>
<!-- Generator: Adobe Illustrator 18.0.0, SVG Export Plug-In . SVG Version: 6.00 Build 0)  -->
<!DOCTYPE svg PUBLIC "-//W3C//DTD SVG 1.1//EN" "http://www.w3.org/Graphics/SVG/1.1/DTD/svg11.dtd">
<svg version="1.1" id="Layer_1" xmlns="http://www.w3.org/2000/svg" xmlns:xlink="http://www.w3.org/1999/xlink" x="0px" y="0px"
	 viewBox="0 0 113.4 56.7" enable-background="new 0 0 113.4 56.7" xml:space="preserve">
<rect x="0" y="0" fill="#0066B3" width="113.4" height="56.7"/>
<g>
	<path fill="#FFFFFF" d="M12.7,24.5c0,0.3-0.1,0.6-0.2,0.4c-0.9-1.5-5-1.4-5,2.1v8.2c0,2.1,2.8,4.1,4.9,1.5c0.1-0.1,0.2-0.1,0.2-0.1
		l0,0.1v1.1h3.5V18.9h-3.5V24.5z M12.7,33.8L12.7,33.8c0,1.5-1.7,1.6-1.7,0c0-0.9,0-6.1,0-6.1c0-1.5,1.7-1.5,1.7-0.1L12.7,33.8z"/>
	<path fill="#FFFFFF" d="M54,33.7c0,1.2-1.7,1.1-1.7-0.1v-9.4h-3.5v10.9c0,3.2,3.8,3.7,5.1,1.6v1h3.5V24.2H54V33.7z"/>
	<rect x="70.1" y="24.2" fill="#FFFFFF" width="3.5" height="13.5"/>
	<rect x="70.1" y="18.9" fill="#FFFFFF" width="3.5" height="3.5"/>
	<polygon fill="#FFFFFF" points="103.3,30.1 105.6,24.2 101.9,24.2 100,29.4 100,18.9 96.3,18.9 96.3,37.8 100,37.8 100,31.1 
		101.9,37.8 105.6,37.8 	"/>
	<path fill="#FFFFFF" d="M17.7,27.3v7.2c0,4.5,8.6,4.7,8.6,0v-1.7h-3.5c0,0,0,0.7,0,1.7c0,1.2-1.7,1.3-1.7,0v-3.1h5.2v-4.2
		C26.3,22.9,17.7,22.9,17.7,27.3z M22.9,29.5h-1.7v-2.2c0-1,1.7-1,1.7,0V29.5z"/>
	<path fill="#FFFFFF" d="M38.3,27.3v7.2c0,4.5,8.6,4.7,8.6,0v-1.7h-3.5c0,0,0,0.7,0,1.7c0,1.2-1.7,1.3-1.7,0v-3.1h5.2v-4.2
		C46.9,22.9,38.3,22.9,38.3,27.3z M43.5,29.5h-1.7v-2.2c0-1,1.7-1,1.7,0V29.5z"/>
	<path fill="#FFFFFF" d="M28,27.3v7.2c0,4.5,8.6,4.7,8.6,0v-1.7h-3.5c0,0,0,0.7,0,1.7c0,1.2-1.7,1.3-1.7,0l0-7.2c0-1,1.7-1,1.7,0
		v2.2h3.5v-2.2C36.6,22.9,28,22.9,28,27.3z"/>
	<path fill="#FFFFFF" d="M86,27.3v7.2c0,4.5,8.6,4.7,8.6,0v-1.7h-3.5c0,0,0,0.7,0,1.7c0,1.2-1.7,1.3-1.7,0l0-7.2c0-1,1.7-1,1.7,0
		v2.2h3.5v-2.2C94.6,22.9,86,22.9,86,27.3z"/>
	<path fill="#FFFFFF" d="M63,25.3v-1h-3.5v13.5H63v-9.5c0-1.2,1.7-1.1,1.7,0.1v9.4h3.5V26.9C68.1,23.7,64.3,23.2,63,25.3z"/>
	<path fill="#FFFFFF" d="M79.1,25.3v-1h-3.5v13.5H79v-9.5c0-1.2,1.7-1.1,1.7,0.1v9.4h3.5V26.9C84.2,23.7,80.4,23.2,79.1,25.3z"/>
</g>
</svg>
